<?xml version="1.0" encoding="UTF-8"?>
<!DOCTYPE svg PUBLIC "-//W3C//DTD SVG 1.1//EN" "http://www.w3.org/Graphics/SVG/1.1/DTD/svg11.dtd">
<!-- Creator: CorelDRAW X6 -->
<svg xmlns="http://www.w3.org/2000/svg" xml:space="preserve" width="362px" height="1025px" version="1.1" style="shape-rendering:geometricPrecision; text-rendering:geometricPrecision; image-rendering:optimizeQuality; fill-rule:evenodd; clip-rule:evenodd"
viewBox="0 0 103 291"
 xmlns:xlink="http://www.w3.org/1999/xlink">
 <defs>
  <style type="text/css">
   <![CDATA[
    .str1 {stroke:#669999;stroke-width:0.772611}
    .str0 {stroke:#669999;stroke-width:1.54539}
    .str2 {stroke:#99CCCC;stroke-width:1.93178;stroke-linecap:round;stroke-linejoin:bevel}
    .fil2 {fill:none}
    .fil1 {fill:#99CCCC}
    .fil0 {fill:white}
   ]]>
  </style>
 </defs>
 <g id="Layer_x0020_1">
  <metadata id="CorelCorpID_0Corel-Layer"/>
  <path class="fil0 str0" d="M62 165l-58 0 0 126 58 0c13,0 23,-10 23,-23l0 -79c0,-13 -10,-23 -23,-23l0 0z"/>
  <polygon class="fil1 str1" points="83,109 4,107 4,28 54,1 54,26 77,3 85,37 95,28 "/>
  <path class="fil0 str1" d="M58 43l-54 0 0 114 54 0c14,0 25,-11 25,-25l0 -64c0,-14 -11,-25 -25,-25l0 0z"/>
  <path class="fil1 str1" d="M70 66l-31 0c-5,0 -10,4 -10,10l0 19c0,5 4,10 10,10l31 0c5,0 10,-4 10,-10l0 -19c0,-5 -4,-10 -10,-10z"/>
  <path class="fil1 str1" d="M12 66l-7 0 0 39 7 0c5,0 10,-4 10,-10l0 -19c0,-5 -4,-10 -10,-10l0 0z"/>
  <path class="fil2 str1" d="M17 109c0,2 4,4 8,4 4,0 6,-2 6,-4"/>
  <path class="fil2 str1" d="M21 82c0,0 0,0 0,0 0,-2 2,-4 4,-4 2,0 4,2 4,4"/>
  <path class="fil2 str2" d="M27 117l19 2 4 31 -25 19m-2 -52l-19 2m0 34l21 16"/>
  <line class="fil2 str1" x1="35" y1="138" x2="12" y2= "138" />
  <path class="fil1" d="M25 169l25 -19c-14,2 -21,-2 -25,-8 -6,6 -14,10 -25,8l25 19z"/>
  <path class="fil0 str1" d="M102 203l-33 50c-4,6 -10,6 -15,2l-15 -12c-4,-4 -6,-10 -2,-15l42 -58c15,4 23,14 23,31l0 2z"/>
  <path class="fil0 str1" d="M53 260l4 -11c1,-4 -2,-8 -7,-10l-46 -17 0 28 37 14c6,2 11,1 13,-3l0 0z"/>
  <path class="fil0 str1" d="M4 250l7 -6c4,-4 6,-10 2,-15l-9 -13 0 34z"/>
  <path class="fil0 str1" d="M4 236l55 -21c6,-2 11,-1 13,3l4 11c1,4 -2,8 -7,10l-65 24 0 -28z"/>
 </g>
</svg>
