<?xml version="1.0" encoding="UTF-8"?>
<!DOCTYPE svg PUBLIC "-//W3C//DTD SVG 1.1//EN" "http://www.w3.org/Graphics/SVG/1.1/DTD/svg11.dtd">
<!-- Creator: CorelDRAW X6 -->
<svg xmlns="http://www.w3.org/2000/svg" xml:space="preserve" width="139px" height="171px" version="1.1" style="shape-rendering:geometricPrecision; text-rendering:geometricPrecision; image-rendering:optimizeQuality; fill-rule:evenodd; clip-rule:evenodd"
viewBox="0 0 18 22"
 xmlns:xlink="http://www.w3.org/1999/xlink">
 <defs>
  <style type="text/css">
   <![CDATA[
    .str0 {stroke:#669999;stroke-width:0.354871}
    .str1 {stroke:#99CCCC;stroke-width:0.887293;stroke-linecap:round;stroke-linejoin:bevel}
    .fil2 {fill:none}
    .fil0 {fill:#99CCCC}
    .fil1 {fill:white}
   ]]>
  </style>
 </defs>
 <g id="Layer_x0020_1">
  <metadata id="CorelCorpID_0Corel-Layer"/>
  <polygon class="fil0 str0" points="2,14 16,14 18,3 14,5 14,4 13,4 5,0 5,4 2,1 1,5 0,4 "/>
  <path class="fil1 str0" d="M5 6l8 0c2,0 3,1 3,3l0 8c0,2 -1,3 -3,3l-8 0c-2,0 -3,-1 -3,-3l0 -8c0,-2 1,-3 3,-3z"/>
  <path class="fil0 str0" d="M3 9l4 0c1,0 1,1 1,1l0 2c0,1 -1,1 -1,1l-4 0c-1,0 -1,-1 -1,-1l0 -2c0,-1 1,-1 1,-1z"/>
  <path class="fil0 str0" d="M11 9l4 0c1,0 1,1 1,1l0 2c0,1 -1,1 -1,1l-4 0c-1,0 -1,-1 -1,-1l0 -2c0,-1 1,-1 1,-1z"/>
  <path class="fil2 str0" d="M10 14c0,0 0,0 -1,0 0,0 -1,0 -1,0"/>
  <path class="fil2 str0" d="M10 11c0,0 0,0 0,0 0,0 0,0 0,0 0,0 0,0 0,0"/>
  <path class="fil2 str1" d="M9 15l-2 0 0 4 3 2m0 -7l2 0 0 4 -3 2"/>
  <line class="fil2 str0" x1="8" y1="18" x2="11" y2= "18" />
  <path class="fil0" d="M9 22l-3 -2c2,0 3,0 3,-1 1,1 2,1 3,1l-3 2z"/>
 </g>
</svg>
