<?xml version="1.0" encoding="UTF-8"?>
<!DOCTYPE svg PUBLIC "-//W3C//DTD SVG 1.1//EN" "http://www.w3.org/Graphics/SVG/1.1/DTD/svg11.dtd">
<!-- Creator: CorelDRAW X6 -->
<svg xmlns="http://www.w3.org/2000/svg" xml:space="preserve" width="155px" height="291px" version="1.1" style="shape-rendering:geometricPrecision; text-rendering:geometricPrecision; image-rendering:optimizeQuality; fill-rule:evenodd; clip-rule:evenodd"
viewBox="0 0 23 43"
 xmlns:xlink="http://www.w3.org/1999/xlink">
 <defs>
  <style type="text/css">
   <![CDATA[
    .str1 {stroke:#669999;stroke-width:0.398158}
    .str0 {stroke:#669999;stroke-width:0.796403}
    .str2 {stroke:#99CCCC;stroke-width:0.995525;stroke-linecap:round;stroke-linejoin:bevel}
    .fil2 {fill:none}
    .fil1 {fill:#99CCCC}
    .fil0 {fill:white}
   ]]>
  </style>
 </defs>
 <g id="Layer_x0020_1">
  <metadata id="CorelCorpID_0Corel-Layer"/>
  <path class="fil0 str0" d="M6 24l10 0c2,0 3,1 3,3l0 11c0,2 -1,3 -3,3l-10 0c-2,0 -3,-1 -3,-3l0 -11c0,-2 1,-3 3,-3z"/>
  <polygon class="fil1 str1" points="3,16 19,16 21,4 16,6 17,4 15,5 7,0 7,4 4,1 3,6 1,4 "/>
  <path class="fil0 str1" d="M7 6l9 0c2,0 4,2 4,4l0 9c0,2 -2,4 -4,4l-9 0c-2,0 -4,-2 -4,-4l0 -9c0,-2 2,-4 4,-4z"/>
  <path class="fil1 str1" d="M5 10l4 0c1,0 1,1 1,1l0 3c0,1 -1,1 -1,1l-4 0c-1,0 -1,-1 -1,-1l0 -3c0,-1 1,-1 1,-1z"/>
  <path class="fil1 str1" d="M13 10l4 0c1,0 1,1 1,1l0 3c0,1 -1,1 -1,1l-4 0c-1,0 -1,-1 -1,-1l0 -3c0,-1 1,-1 1,-1z"/>
  <path class="fil2 str1" d="M12 16c0,0 -1,1 -1,1 -1,0 -1,0 -1,-1"/>
  <path class="fil2 str1" d="M12 12c0,0 0,0 0,0 0,0 0,-1 -1,-1 0,0 -1,0 -1,1"/>
  <path class="fil2 str2" d="M11 17l-3 0 -1 4 4 3m0 -8l3 0 1 4 -4 3"/>
  <line class="fil2 str1" x1="10" y1="20" x2="13" y2= "20" />
  <path class="fil1" d="M11 25l-4 -3c2,0 3,0 4,-1 1,1 2,1 4,1l-4 3z"/>
  <path class="fil0 str1" d="M0 30l5 7c1,1 1,1 2,0l2 -2c1,-1 1,-1 0,-2l-6 -8c-2,1 -3,2 -3,4l0 0z"/>
  <path class="fil0 str1" d="M7 38l-1 -2c0,-1 0,-1 1,-1l10 -4c1,0 2,0 2,0l1 2c0,1 0,1 -1,1l-10 4c-1,0 -2,0 -2,0z"/>
  <path class="fil0 str1" d="M23 30l-5 7c-1,1 -1,1 -2,0l-2 -2c-1,-1 -1,-1 0,-2l6 -8c2,1 3,2 3,4l0 0z"/>
  <path class="fil0 str1" d="M17 38l1 -2c0,-1 0,-1 -1,-1l-10 -4c-1,0 -2,0 -2,0l-1 2c0,1 0,1 1,1l10 4c1,0 2,0 2,0z"/>
 </g>
</svg>
