<?xml version="1.0" encoding="UTF-8"?>
<!DOCTYPE svg PUBLIC "-//W3C//DTD SVG 1.1//EN" "http://www.w3.org/Graphics/SVG/1.1/DTD/svg11.dtd">
<!-- Creator: CorelDRAW X6 -->
<svg xmlns="http://www.w3.org/2000/svg" xml:space="preserve" width="500px" height="104px" version="1.1" style="shape-rendering:geometricPrecision; text-rendering:geometricPrecision; image-rendering:optimizeQuality; fill-rule:evenodd; clip-rule:evenodd"
viewBox="0 0 1348 281"
 xmlns:xlink="http://www.w3.org/1999/xlink">
 <defs>
  <style type="text/css">
   <![CDATA[
    .str2 {stroke:#669999;stroke-width:1.75147}
    .str0 {stroke:#669999;stroke-width:2.18924}
    .str1 {stroke:#669999;stroke-width:3.5028}
    .str3 {stroke:#99CCCC;stroke-width:4.3786;stroke-linecap:round;stroke-linejoin:bevel}
    .str4 {stroke:#FF6600;stroke-width:4.3786}
    .fil0 {fill:none}
    .fil1 {fill:#99CCCC}
    .fil2 {fill:white}
   ]]>
  </style>
 </defs>
 <g id="Layer_x0020_1">
  <metadata id="CorelCorpID_0Corel-Layer"/>
  <g id="_1020970160">
   <rect class="fil0 str0" x="207" y="184" width="28" height="77" rx="5" ry="5"/>
   <ellipse class="fil1 str0" cx="221" cy="266" rx="17" ry="10"/>
  </g>
  <g id="_1020979248">
   <rect class="fil0 str0" transform="matrix(0.991188 -0.132461 0.132461 0.991188 242.933 186.171)" width="28" height="77" rx="5" ry="5"/>
   <ellipse class="fil1 str0" transform="matrix(0.991188 -0.132461 0.132461 0.991188 267.504 265.986)" rx="17" ry="10"/>
  </g>
  <rect class="fil2 str1" x="202" y="106" width="75" height="79" rx="14" ry="14"/>
  <g id="_1020981424">
   <polygon class="fil1 str2" points="202,69 274,69 282,17 261,25 265,17 257,21 220,1 220,17 205,2 201,24 195,18 "/>
   <rect class="fil2 str2" x="202" y="28" width="72" height="72" rx="17" ry="17"/>
   <rect class="fil1 str2" x="204" y="43" width="32" height="25" rx="6" ry="6"/>
   <rect class="fil1 str2" x="241" y="43" width="32" height="25" rx="6" ry="6"/>
   <path class="fil0 str2" d="M243 69c-1,1 -3,2 -5,2 -2,0 -4,-1 -4,-2"/>
   <path class="fil0 str2" d="M241 53c0,0 0,0 0,0 0,-1 -1,-2 -3,-2 -1,0 -2,1 -2,3"/>
   <path class="fil0 str3" d="M238 75l-12 2 -2 19 16 12m2 -33l12 2 2 19 -16 12"/>
   <line class="fil0 str2" x1="232" y1="89" x2="247" y2= "89" />
   <path class="fil1" d="M239 108l-16 -12c9,1 14,-1 16,-4 3,4 8,6 16,4l-16 12z"/>
  </g>
  <path class="fil2 str2" d="M190 130l21 32c2,3 6,4 10,2l10 -7c3,-2 4,-6 2,-10l-27 -37c-10,2 -15,9 -15,20z"/>
  <rect class="fil2 str2" transform="matrix(-0.32827 -0.841722 1.29744 -0.483211 222.563 170.186)" width="19" height="43" rx="4" ry="4"/>
  <path class="fil2 str2" d="M288 130l-21 32c-2,3 -6,4 -10,2l-10 -7c-3,-2 -4,-6 -2,-10l27 -37c10,2 15,9 15,20z"/>
  <rect class="fil2 str2" transform="matrix(0.32827 -0.841722 -1.29744 -0.483211 260.415 171.154)" width="19" height="43" rx="4" ry="4"/>
  <polyline class="fil0 str4" points="0,278 103,278 110,275 120,278 128,275 136,279 449,279 454,268 483,279 501,270 514,279 1103,279 1105,263 1132,279 1150,279 1172,259 1182,279 1348,278 "/>
 </g>
</svg>
