<?xml version="1.0" encoding="UTF-8"?>
<!DOCTYPE svg PUBLIC "-//W3C//DTD SVG 1.1//EN" "http://www.w3.org/Graphics/SVG/1.1/DTD/svg11.dtd">
<!-- Creator: CorelDRAW X6 -->
<svg xmlns="http://www.w3.org/2000/svg" xml:space="preserve" width="100px" height="276px" version="1.1" style="shape-rendering:geometricPrecision; text-rendering:geometricPrecision; image-rendering:optimizeQuality; fill-rule:evenodd; clip-rule:evenodd"
viewBox="0 0 82 226"
 xmlns:xlink="http://www.w3.org/1999/xlink">
 <defs>
  <style type="text/css">
   <![CDATA[
    .str2 {stroke:#669999;stroke-width:1.42796}
    .str0 {stroke:#669999;stroke-width:1.78487}
    .str1 {stroke:#669999;stroke-width:2.85581}
    .str3 {stroke:#99CCCC;stroke-width:3.56984;stroke-linecap:round;stroke-linejoin:bevel}
    .fil0 {fill:none}
    .fil1 {fill:#99CCCC}
    .fil2 {fill:white}
   ]]>
  </style>
 </defs>
 <g id="Layer_x0020_1">
  <metadata id="CorelCorpID_0Corel-Layer"/>
  <g id="_1020956816">
   <rect class="fil0 str0" x="15" y="150" width="22" height="63" rx="4" ry="4"/>
   <ellipse class="fil1 str0" cx="27" cy="217" rx="14" ry="8"/>
  </g>
  <g id="_1020958320">
   <rect class="fil0 str0" transform="matrix(0.991188 -0.132461 0.132461 0.991188 44.238 151.784)" width="22" height="63" rx="4" ry="4"/>
   <ellipse class="fil1 str0" transform="matrix(0.991188 -0.132461 0.132461 0.991188 64.2705 216.857)" rx="14" ry="8"/>
  </g>
  <rect class="fil2 str1" x="10" y="86" width="61" height="65" rx="12" ry="12"/>
  <g id="_1020969168">
   <polygon class="fil1 str2" points="11,57 70,56 76,13 59,20 62,14 55,17 26,1 26,14 14,2 10,20 5,15 "/>
   <rect class="fil2 str2" x="11" y="23" width="59" height="59" rx="13" ry="13"/>
   <rect class="fil1 str2" x="13" y="35" width="26" height="20" rx="5" ry="5"/>
   <rect class="fil1 str2" x="43" y="35" width="26" height="20" rx="5" ry="5"/>
   <path class="fil0 str2" d="M45 57c0,1 -2,2 -4,2 -2,0 -3,-1 -3,-2"/>
   <path class="fil0 str2" d="M43 43c0,0 0,0 0,0 0,-1 -1,-2 -2,-2 -1,0 -2,1 -2,2"/>
   <path class="fil0 str3" d="M40 61l-10 1 -2 16 13 10m1 -27l10 1 2 16 -13 10"/>
   <line class="fil0 str2" x1="36" y1="72" x2="48" y2= "72" />
   <path class="fil1" d="M41 88l-13 -10c7,1 11,-1 13,-4 3,3 7,5 13,4l-13 10z"/>
  </g>
  <path class="fil2 str2" d="M1 106l17 26c2,3 5,3 8,1l8 -6c2,-2 3,-5 1,-8l-22 -30c-8,2 -12,7 -12,16z"/>
  <rect class="fil2 str2" transform="matrix(-0.32827 -0.841722 1.29744 -0.483211 27.6312 138.752)" width="15" height="35" rx="4" ry="4"/>
  <path class="fil2 str2" d="M81 106l-17 26c-2,3 -5,3 -8,1l-8 -6c-2,-2 -3,-5 -1,-8l22 -30c8,2 12,7 12,16z"/>
  <rect class="fil2 str2" transform="matrix(0.32827 -0.841722 -1.29744 -0.483211 58.4913 139.541)" width="15" height="35" rx="4" ry="4"/>
 </g>
</svg>
